M48
;DRILL file {KiCad 4.0.7-e2-6376~58~ubuntu16.04.1} date Mon Apr  9 08:04:02 2018
;FORMAT={3:3/ absolute / metric / suppress leading zeros}
FMAT,2
METRIC,TZ
T1C2.200
T2C2.750
T3C3.500
%
G90
G05
M71
T1
X62000Y-76500
X87000Y-76500
T2
X52500Y-67500
X52500Y-128500
X161500Y-67500
X161500Y-128500
T3
X59300Y-119800
X67700Y-119800
X75300Y-119800
X83700Y-119800
X90800Y-119800
X99200Y-119800
X106300Y-119800
X114700Y-119800
X122300Y-119800
X130700Y-119800
X138300Y-119800
X146700Y-119800
X156300Y-82800
X156300Y-91200
X156300Y-98800
X156300Y-107200
T0
M30
