G04 #@! TF.FileFunction,Copper,L1,Top,Signal*
%FSLAX46Y46*%
G04 Gerber Fmt 4.6, Leading zero omitted, Abs format (unit mm)*
G04 Created by KiCad (PCBNEW 4.0.7-e2-6376~58~ubuntu16.04.1) date Mon Apr  9 08:03:59 2018*
%MOMM*%
%LPD*%
G01*
G04 APERTURE LIST*
%ADD10C,0.100000*%
%ADD11C,3.000000*%
%ADD12C,1.700000*%
%ADD13C,3.500000*%
%ADD14C,0.750000*%
%ADD15C,0.250000*%
%ADD16C,0.230000*%
G04 APERTURE END LIST*
D10*
D11*
X110500000Y-112500000D03*
X106300000Y-112500000D03*
X114700000Y-112500000D03*
D12*
X114500000Y-72500000D03*
X112000000Y-72500000D03*
X109500000Y-72500000D03*
X107000000Y-72500000D03*
X104500000Y-72500000D03*
D11*
X63500000Y-112500000D03*
X59300000Y-112500000D03*
X67700000Y-112500000D03*
X79500000Y-112500000D03*
X75300000Y-112500000D03*
X83700000Y-112500000D03*
X95000000Y-112500000D03*
X90800000Y-112500000D03*
X99200000Y-112500000D03*
X126500000Y-112500000D03*
X122300000Y-112500000D03*
X130700000Y-112500000D03*
X142500000Y-112500000D03*
X138300000Y-112500000D03*
X146700000Y-112500000D03*
X149000000Y-103000000D03*
X149000000Y-107200000D03*
X149000000Y-98800000D03*
X149000000Y-87000000D03*
X149000000Y-91200000D03*
X149000000Y-82800000D03*
D12*
X136500000Y-72500000D03*
X134000000Y-72500000D03*
X131500000Y-72500000D03*
X129000000Y-72500000D03*
X126500000Y-72500000D03*
X58500000Y-95500000D03*
X58500000Y-90500000D03*
D13*
X62000000Y-80000000D03*
X87000000Y-80000000D03*
D11*
X52500000Y-67500000D03*
X52500000Y-128500000D03*
X161500000Y-128500000D03*
X161500000Y-67500000D03*
D12*
X148000000Y-73000000D03*
X153000000Y-73000000D03*
D14*
X150200000Y-91200000D02*
X149000000Y-91200000D01*
X75000000Y-112800000D02*
X75300000Y-112500000D01*
X91000000Y-112700000D02*
X90800000Y-112500000D01*
X122000000Y-112800000D02*
X122300000Y-112500000D01*
X138000000Y-112800000D02*
X138300000Y-112500000D01*
X149000000Y-92200000D02*
X149000000Y-91200000D01*
X138300000Y-113500000D02*
X138300000Y-112500000D01*
X121500000Y-112500000D02*
X122300000Y-112500000D01*
X106300000Y-113500000D02*
X106300000Y-112500000D01*
X90800000Y-114000000D02*
X90800000Y-112500000D01*
X62000000Y-81000000D02*
X62000000Y-80000000D01*
D15*
X62000000Y-81000000D02*
X62000000Y-80000000D01*
D14*
X104500000Y-72500000D02*
X107000000Y-70000000D01*
X124500000Y-72500000D02*
X126500000Y-72500000D01*
X122000000Y-70000000D02*
X124500000Y-72500000D01*
X107000000Y-70000000D02*
X122000000Y-70000000D01*
X87000000Y-80000000D02*
X94000000Y-80000000D01*
X101500000Y-72500000D02*
X104500000Y-72500000D01*
X94000000Y-80000000D02*
X101500000Y-72500000D01*
X58500000Y-95500000D02*
X58500000Y-94500000D01*
X73000000Y-80000000D02*
X87000000Y-80000000D01*
X58500000Y-94500000D02*
X73000000Y-80000000D01*
X149000000Y-98800000D02*
X149000000Y-97000000D01*
X145000000Y-86800000D02*
X149000000Y-82800000D01*
X145000000Y-93000000D02*
X145000000Y-86800000D01*
X149000000Y-97000000D02*
X145000000Y-93000000D01*
X143000000Y-109000000D02*
X143200000Y-109000000D01*
X143200000Y-109000000D02*
X146700000Y-112500000D01*
X58500000Y-95500000D02*
X58500000Y-104500000D01*
X58500000Y-104500000D02*
X66500000Y-112500000D01*
X66500000Y-112500000D02*
X70500000Y-112500000D01*
X80200000Y-109000000D02*
X83200000Y-112000000D01*
X74000000Y-109000000D02*
X80200000Y-109000000D01*
X70500000Y-112500000D02*
X74000000Y-109000000D01*
X83200000Y-112000000D02*
X87000000Y-112000000D01*
X87000000Y-112000000D02*
X90000000Y-109000000D01*
X90000000Y-109000000D02*
X95700000Y-109000000D01*
X95700000Y-109000000D02*
X98700000Y-112000000D01*
X98700000Y-112000000D02*
X101000000Y-112000000D01*
X101000000Y-112000000D02*
X104000000Y-109000000D01*
X104000000Y-109000000D02*
X111200000Y-109000000D01*
X111200000Y-109000000D02*
X114200000Y-112000000D01*
X114200000Y-112000000D02*
X118000000Y-112000000D01*
X118000000Y-112000000D02*
X121000000Y-109000000D01*
X121000000Y-109000000D02*
X127200000Y-109000000D01*
X127200000Y-109000000D02*
X131200000Y-113000000D01*
X131200000Y-113000000D02*
X132000000Y-113000000D01*
X132000000Y-113000000D02*
X136000000Y-109000000D01*
X136000000Y-109000000D02*
X143000000Y-109000000D01*
X143200000Y-109000000D02*
X145000000Y-107200000D01*
X145000000Y-107200000D02*
X145000000Y-102800000D01*
X145000000Y-102800000D02*
X149000000Y-98800000D01*
X126500000Y-72500000D02*
X130000000Y-69000000D01*
X149000000Y-69000000D02*
X153000000Y-73000000D01*
X130000000Y-69000000D02*
X149000000Y-69000000D01*
D15*
X146500000Y-112300000D02*
X146700000Y-112500000D01*
D16*
G36*
X158885000Y-128885000D02*
X55115000Y-128885000D01*
X55115000Y-120269948D01*
X56926589Y-120269948D01*
X57287095Y-121142441D01*
X57954048Y-121810559D01*
X58825910Y-122172587D01*
X59769948Y-122173411D01*
X60642441Y-121812905D01*
X61310559Y-121145952D01*
X61672587Y-120274090D01*
X61672590Y-120269948D01*
X65326589Y-120269948D01*
X65687095Y-121142441D01*
X66354048Y-121810559D01*
X67225910Y-122172587D01*
X68169948Y-122173411D01*
X69042441Y-121812905D01*
X69710559Y-121145952D01*
X70072587Y-120274090D01*
X70072590Y-120269948D01*
X72926589Y-120269948D01*
X73287095Y-121142441D01*
X73954048Y-121810559D01*
X74825910Y-122172587D01*
X75769948Y-122173411D01*
X76642441Y-121812905D01*
X77310559Y-121145952D01*
X77672587Y-120274090D01*
X77672590Y-120269948D01*
X81326589Y-120269948D01*
X81687095Y-121142441D01*
X82354048Y-121810559D01*
X83225910Y-122172587D01*
X84169948Y-122173411D01*
X85042441Y-121812905D01*
X85710559Y-121145952D01*
X86072587Y-120274090D01*
X86072590Y-120269948D01*
X88426589Y-120269948D01*
X88787095Y-121142441D01*
X89454048Y-121810559D01*
X90325910Y-122172587D01*
X91269948Y-122173411D01*
X92142441Y-121812905D01*
X92810559Y-121145952D01*
X93172587Y-120274090D01*
X93172590Y-120269948D01*
X96826589Y-120269948D01*
X97187095Y-121142441D01*
X97854048Y-121810559D01*
X98725910Y-122172587D01*
X99669948Y-122173411D01*
X100542441Y-121812905D01*
X101210559Y-121145952D01*
X101572587Y-120274090D01*
X101572590Y-120269948D01*
X103926589Y-120269948D01*
X104287095Y-121142441D01*
X104954048Y-121810559D01*
X105825910Y-122172587D01*
X106769948Y-122173411D01*
X107642441Y-121812905D01*
X108310559Y-121145952D01*
X108672587Y-120274090D01*
X108672590Y-120269948D01*
X112326589Y-120269948D01*
X112687095Y-121142441D01*
X113354048Y-121810559D01*
X114225910Y-122172587D01*
X115169948Y-122173411D01*
X116042441Y-121812905D01*
X116710559Y-121145952D01*
X117072587Y-120274090D01*
X117072590Y-120269948D01*
X119926589Y-120269948D01*
X120287095Y-121142441D01*
X120954048Y-121810559D01*
X121825910Y-122172587D01*
X122769948Y-122173411D01*
X123642441Y-121812905D01*
X124310559Y-121145952D01*
X124672587Y-120274090D01*
X124672590Y-120269948D01*
X128326589Y-120269948D01*
X128687095Y-121142441D01*
X129354048Y-121810559D01*
X130225910Y-122172587D01*
X131169948Y-122173411D01*
X132042441Y-121812905D01*
X132710559Y-121145952D01*
X133072587Y-120274090D01*
X133072590Y-120269948D01*
X135926589Y-120269948D01*
X136287095Y-121142441D01*
X136954048Y-121810559D01*
X137825910Y-122172587D01*
X138769948Y-122173411D01*
X139642441Y-121812905D01*
X140310559Y-121145952D01*
X140672587Y-120274090D01*
X140672590Y-120269948D01*
X144326589Y-120269948D01*
X144687095Y-121142441D01*
X145354048Y-121810559D01*
X146225910Y-122172587D01*
X147169948Y-122173411D01*
X148042441Y-121812905D01*
X148710559Y-121145952D01*
X149072587Y-120274090D01*
X149073411Y-119330052D01*
X148712905Y-118457559D01*
X148045952Y-117789441D01*
X147174090Y-117427413D01*
X146230052Y-117426589D01*
X145357559Y-117787095D01*
X144689441Y-118454048D01*
X144327413Y-119325910D01*
X144326589Y-120269948D01*
X140672590Y-120269948D01*
X140673411Y-119330052D01*
X140312905Y-118457559D01*
X139645952Y-117789441D01*
X138774090Y-117427413D01*
X137830052Y-117426589D01*
X136957559Y-117787095D01*
X136289441Y-118454048D01*
X135927413Y-119325910D01*
X135926589Y-120269948D01*
X133072590Y-120269948D01*
X133073411Y-119330052D01*
X132712905Y-118457559D01*
X132045952Y-117789441D01*
X131174090Y-117427413D01*
X130230052Y-117426589D01*
X129357559Y-117787095D01*
X128689441Y-118454048D01*
X128327413Y-119325910D01*
X128326589Y-120269948D01*
X124672590Y-120269948D01*
X124673411Y-119330052D01*
X124312905Y-118457559D01*
X123645952Y-117789441D01*
X122774090Y-117427413D01*
X121830052Y-117426589D01*
X120957559Y-117787095D01*
X120289441Y-118454048D01*
X119927413Y-119325910D01*
X119926589Y-120269948D01*
X117072590Y-120269948D01*
X117073411Y-119330052D01*
X116712905Y-118457559D01*
X116045952Y-117789441D01*
X115174090Y-117427413D01*
X114230052Y-117426589D01*
X113357559Y-117787095D01*
X112689441Y-118454048D01*
X112327413Y-119325910D01*
X112326589Y-120269948D01*
X108672590Y-120269948D01*
X108673411Y-119330052D01*
X108312905Y-118457559D01*
X107645952Y-117789441D01*
X106774090Y-117427413D01*
X105830052Y-117426589D01*
X104957559Y-117787095D01*
X104289441Y-118454048D01*
X103927413Y-119325910D01*
X103926589Y-120269948D01*
X101572590Y-120269948D01*
X101573411Y-119330052D01*
X101212905Y-118457559D01*
X100545952Y-117789441D01*
X99674090Y-117427413D01*
X98730052Y-117426589D01*
X97857559Y-117787095D01*
X97189441Y-118454048D01*
X96827413Y-119325910D01*
X96826589Y-120269948D01*
X93172590Y-120269948D01*
X93173411Y-119330052D01*
X92812905Y-118457559D01*
X92145952Y-117789441D01*
X91274090Y-117427413D01*
X90330052Y-117426589D01*
X89457559Y-117787095D01*
X88789441Y-118454048D01*
X88427413Y-119325910D01*
X88426589Y-120269948D01*
X86072590Y-120269948D01*
X86073411Y-119330052D01*
X85712905Y-118457559D01*
X85045952Y-117789441D01*
X84174090Y-117427413D01*
X83230052Y-117426589D01*
X82357559Y-117787095D01*
X81689441Y-118454048D01*
X81327413Y-119325910D01*
X81326589Y-120269948D01*
X77672590Y-120269948D01*
X77673411Y-119330052D01*
X77312905Y-118457559D01*
X76645952Y-117789441D01*
X75774090Y-117427413D01*
X74830052Y-117426589D01*
X73957559Y-117787095D01*
X73289441Y-118454048D01*
X72927413Y-119325910D01*
X72926589Y-120269948D01*
X70072590Y-120269948D01*
X70073411Y-119330052D01*
X69712905Y-118457559D01*
X69045952Y-117789441D01*
X68174090Y-117427413D01*
X67230052Y-117426589D01*
X66357559Y-117787095D01*
X65689441Y-118454048D01*
X65327413Y-119325910D01*
X65326589Y-120269948D01*
X61672590Y-120269948D01*
X61673411Y-119330052D01*
X61312905Y-118457559D01*
X60645952Y-117789441D01*
X59774090Y-117427413D01*
X58830052Y-117426589D01*
X57957559Y-117787095D01*
X57289441Y-118454048D01*
X56927413Y-119325910D01*
X56926589Y-120269948D01*
X55115000Y-120269948D01*
X55115000Y-112920438D01*
X57176632Y-112920438D01*
X57499159Y-113701012D01*
X58095847Y-114298742D01*
X58875857Y-114622631D01*
X59720438Y-114623368D01*
X60501012Y-114300841D01*
X61098742Y-113704153D01*
X61400342Y-112977821D01*
X61699159Y-113701012D01*
X62295847Y-114298742D01*
X63075857Y-114622631D01*
X63920438Y-114623368D01*
X64701012Y-114300841D01*
X64752522Y-114249420D01*
X65957651Y-114249420D01*
X66073350Y-114747397D01*
X67057214Y-115198817D01*
X68138936Y-115239365D01*
X69153833Y-114862870D01*
X69326650Y-114747397D01*
X69442349Y-114249420D01*
X67700000Y-112507071D01*
X65957651Y-114249420D01*
X64752522Y-114249420D01*
X65259163Y-113743663D01*
X65337130Y-113953833D01*
X65452603Y-114126650D01*
X65950580Y-114242349D01*
X67692929Y-112500000D01*
X67707071Y-112500000D01*
X69449420Y-114242349D01*
X69947397Y-114126650D01*
X70398817Y-113142786D01*
X70407151Y-112920438D01*
X73176632Y-112920438D01*
X73499159Y-113701012D01*
X74095847Y-114298742D01*
X74875857Y-114622631D01*
X75720438Y-114623368D01*
X76501012Y-114300841D01*
X77098742Y-113704153D01*
X77400342Y-112977821D01*
X77699159Y-113701012D01*
X78295847Y-114298742D01*
X79075857Y-114622631D01*
X79920438Y-114623368D01*
X80701012Y-114300841D01*
X80752522Y-114249420D01*
X81957651Y-114249420D01*
X82073350Y-114747397D01*
X83057214Y-115198817D01*
X84138936Y-115239365D01*
X85153833Y-114862870D01*
X85326650Y-114747397D01*
X85442349Y-114249420D01*
X83700000Y-112507071D01*
X81957651Y-114249420D01*
X80752522Y-114249420D01*
X81259163Y-113743663D01*
X81337130Y-113953833D01*
X81452603Y-114126650D01*
X81950580Y-114242349D01*
X83692929Y-112500000D01*
X83707071Y-112500000D01*
X85449420Y-114242349D01*
X85947397Y-114126650D01*
X86398817Y-113142786D01*
X86407151Y-112920438D01*
X88676632Y-112920438D01*
X88999159Y-113701012D01*
X89595847Y-114298742D01*
X89909383Y-114428934D01*
X90094307Y-114705693D01*
X90418082Y-114922032D01*
X90800000Y-114998000D01*
X91181918Y-114922032D01*
X91505693Y-114705693D01*
X91690470Y-114429155D01*
X92001012Y-114300841D01*
X92598742Y-113704153D01*
X92900342Y-112977821D01*
X93199159Y-113701012D01*
X93795847Y-114298742D01*
X94575857Y-114622631D01*
X95420438Y-114623368D01*
X96201012Y-114300841D01*
X96252522Y-114249420D01*
X97457651Y-114249420D01*
X97573350Y-114747397D01*
X98557214Y-115198817D01*
X99638936Y-115239365D01*
X100653833Y-114862870D01*
X100826650Y-114747397D01*
X100942349Y-114249420D01*
X99200000Y-112507071D01*
X97457651Y-114249420D01*
X96252522Y-114249420D01*
X96759163Y-113743663D01*
X96837130Y-113953833D01*
X96952603Y-114126650D01*
X97450580Y-114242349D01*
X99192929Y-112500000D01*
X99207071Y-112500000D01*
X100949420Y-114242349D01*
X101447397Y-114126650D01*
X101898817Y-113142786D01*
X101907151Y-112920438D01*
X104176632Y-112920438D01*
X104499159Y-113701012D01*
X105095847Y-114298742D01*
X105875857Y-114622631D01*
X106720438Y-114623368D01*
X107501012Y-114300841D01*
X108098742Y-113704153D01*
X108400342Y-112977821D01*
X108699159Y-113701012D01*
X109295847Y-114298742D01*
X110075857Y-114622631D01*
X110920438Y-114623368D01*
X111701012Y-114300841D01*
X111752522Y-114249420D01*
X112957651Y-114249420D01*
X113073350Y-114747397D01*
X114057214Y-115198817D01*
X115138936Y-115239365D01*
X116153833Y-114862870D01*
X116326650Y-114747397D01*
X116442349Y-114249420D01*
X114700000Y-112507071D01*
X112957651Y-114249420D01*
X111752522Y-114249420D01*
X112259163Y-113743663D01*
X112337130Y-113953833D01*
X112452603Y-114126650D01*
X112950580Y-114242349D01*
X114692929Y-112500000D01*
X114707071Y-112500000D01*
X116449420Y-114242349D01*
X116947397Y-114126650D01*
X117398817Y-113142786D01*
X117407151Y-112920438D01*
X120176632Y-112920438D01*
X120499159Y-113701012D01*
X121095847Y-114298742D01*
X121875857Y-114622631D01*
X122720438Y-114623368D01*
X123501012Y-114300841D01*
X124098742Y-113704153D01*
X124400342Y-112977821D01*
X124699159Y-113701012D01*
X125295847Y-114298742D01*
X126075857Y-114622631D01*
X126920438Y-114623368D01*
X127701012Y-114300841D01*
X127752522Y-114249420D01*
X128957651Y-114249420D01*
X129073350Y-114747397D01*
X130057214Y-115198817D01*
X131138936Y-115239365D01*
X132153833Y-114862870D01*
X132326650Y-114747397D01*
X132442349Y-114249420D01*
X130700000Y-112507071D01*
X128957651Y-114249420D01*
X127752522Y-114249420D01*
X128259163Y-113743663D01*
X128337130Y-113953833D01*
X128452603Y-114126650D01*
X128950580Y-114242349D01*
X130692929Y-112500000D01*
X130707071Y-112500000D01*
X132449420Y-114242349D01*
X132947397Y-114126650D01*
X133398817Y-113142786D01*
X133407151Y-112920438D01*
X136176632Y-112920438D01*
X136499159Y-113701012D01*
X137095847Y-114298742D01*
X137875857Y-114622631D01*
X138720438Y-114623368D01*
X139501012Y-114300841D01*
X140098742Y-113704153D01*
X140400342Y-112977821D01*
X140699159Y-113701012D01*
X141295847Y-114298742D01*
X142075857Y-114622631D01*
X142920438Y-114623368D01*
X143701012Y-114300841D01*
X143752522Y-114249420D01*
X144957651Y-114249420D01*
X145073350Y-114747397D01*
X146057214Y-115198817D01*
X147138936Y-115239365D01*
X148153833Y-114862870D01*
X148326650Y-114747397D01*
X148442349Y-114249420D01*
X146700000Y-112507071D01*
X144957651Y-114249420D01*
X143752522Y-114249420D01*
X144259163Y-113743663D01*
X144337130Y-113953833D01*
X144452603Y-114126650D01*
X144950580Y-114242349D01*
X146692929Y-112500000D01*
X146707071Y-112500000D01*
X148449420Y-114242349D01*
X148947397Y-114126650D01*
X149398817Y-113142786D01*
X149439365Y-112061064D01*
X149062870Y-111046167D01*
X148947397Y-110873350D01*
X148449420Y-110757651D01*
X146707071Y-112500000D01*
X146692929Y-112500000D01*
X144950580Y-110757651D01*
X144452603Y-110873350D01*
X144271018Y-111269113D01*
X143753390Y-110750580D01*
X144957651Y-110750580D01*
X146700000Y-112492929D01*
X148442349Y-110750580D01*
X148326650Y-110252603D01*
X147342786Y-109801183D01*
X146261064Y-109760635D01*
X145246167Y-110137130D01*
X145073350Y-110252603D01*
X144957651Y-110750580D01*
X143753390Y-110750580D01*
X143704153Y-110701258D01*
X142924143Y-110377369D01*
X142079562Y-110376632D01*
X141298988Y-110699159D01*
X140701258Y-111295847D01*
X140399658Y-112022179D01*
X140100841Y-111298988D01*
X139504153Y-110701258D01*
X138724143Y-110377369D01*
X137879562Y-110376632D01*
X137098988Y-110699159D01*
X136501258Y-111295847D01*
X136177369Y-112075857D01*
X136176632Y-112920438D01*
X133407151Y-112920438D01*
X133439365Y-112061064D01*
X133062870Y-111046167D01*
X132947397Y-110873350D01*
X132449420Y-110757651D01*
X130707071Y-112500000D01*
X130692929Y-112500000D01*
X128950580Y-110757651D01*
X128452603Y-110873350D01*
X128271018Y-111269113D01*
X127753390Y-110750580D01*
X128957651Y-110750580D01*
X130700000Y-112492929D01*
X132442349Y-110750580D01*
X132326650Y-110252603D01*
X131342786Y-109801183D01*
X130261064Y-109760635D01*
X129246167Y-110137130D01*
X129073350Y-110252603D01*
X128957651Y-110750580D01*
X127753390Y-110750580D01*
X127704153Y-110701258D01*
X126924143Y-110377369D01*
X126079562Y-110376632D01*
X125298988Y-110699159D01*
X124701258Y-111295847D01*
X124399658Y-112022179D01*
X124100841Y-111298988D01*
X123504153Y-110701258D01*
X122724143Y-110377369D01*
X121879562Y-110376632D01*
X121098988Y-110699159D01*
X120501258Y-111295847D01*
X120177369Y-112075857D01*
X120176632Y-112920438D01*
X117407151Y-112920438D01*
X117439365Y-112061064D01*
X117062870Y-111046167D01*
X116947397Y-110873350D01*
X116449420Y-110757651D01*
X114707071Y-112500000D01*
X114692929Y-112500000D01*
X112950580Y-110757651D01*
X112452603Y-110873350D01*
X112271018Y-111269113D01*
X111753390Y-110750580D01*
X112957651Y-110750580D01*
X114700000Y-112492929D01*
X116442349Y-110750580D01*
X116326650Y-110252603D01*
X115342786Y-109801183D01*
X114261064Y-109760635D01*
X113246167Y-110137130D01*
X113073350Y-110252603D01*
X112957651Y-110750580D01*
X111753390Y-110750580D01*
X111704153Y-110701258D01*
X110924143Y-110377369D01*
X110079562Y-110376632D01*
X109298988Y-110699159D01*
X108701258Y-111295847D01*
X108399658Y-112022179D01*
X108100841Y-111298988D01*
X107504153Y-110701258D01*
X106724143Y-110377369D01*
X105879562Y-110376632D01*
X105098988Y-110699159D01*
X104501258Y-111295847D01*
X104177369Y-112075857D01*
X104176632Y-112920438D01*
X101907151Y-112920438D01*
X101939365Y-112061064D01*
X101562870Y-111046167D01*
X101447397Y-110873350D01*
X100949420Y-110757651D01*
X99207071Y-112500000D01*
X99192929Y-112500000D01*
X97450580Y-110757651D01*
X96952603Y-110873350D01*
X96771018Y-111269113D01*
X96253390Y-110750580D01*
X97457651Y-110750580D01*
X99200000Y-112492929D01*
X100942349Y-110750580D01*
X100826650Y-110252603D01*
X99842786Y-109801183D01*
X98761064Y-109760635D01*
X97746167Y-110137130D01*
X97573350Y-110252603D01*
X97457651Y-110750580D01*
X96253390Y-110750580D01*
X96204153Y-110701258D01*
X95424143Y-110377369D01*
X94579562Y-110376632D01*
X93798988Y-110699159D01*
X93201258Y-111295847D01*
X92899658Y-112022179D01*
X92600841Y-111298988D01*
X92004153Y-110701258D01*
X91224143Y-110377369D01*
X90379562Y-110376632D01*
X89598988Y-110699159D01*
X89001258Y-111295847D01*
X88677369Y-112075857D01*
X88676632Y-112920438D01*
X86407151Y-112920438D01*
X86439365Y-112061064D01*
X86062870Y-111046167D01*
X85947397Y-110873350D01*
X85449420Y-110757651D01*
X83707071Y-112500000D01*
X83692929Y-112500000D01*
X81950580Y-110757651D01*
X81452603Y-110873350D01*
X81271018Y-111269113D01*
X80753390Y-110750580D01*
X81957651Y-110750580D01*
X83700000Y-112492929D01*
X85442349Y-110750580D01*
X85326650Y-110252603D01*
X84342786Y-109801183D01*
X83261064Y-109760635D01*
X82246167Y-110137130D01*
X82073350Y-110252603D01*
X81957651Y-110750580D01*
X80753390Y-110750580D01*
X80704153Y-110701258D01*
X79924143Y-110377369D01*
X79079562Y-110376632D01*
X78298988Y-110699159D01*
X77701258Y-111295847D01*
X77399658Y-112022179D01*
X77100841Y-111298988D01*
X76504153Y-110701258D01*
X75724143Y-110377369D01*
X74879562Y-110376632D01*
X74098988Y-110699159D01*
X73501258Y-111295847D01*
X73177369Y-112075857D01*
X73176632Y-112920438D01*
X70407151Y-112920438D01*
X70439365Y-112061064D01*
X70062870Y-111046167D01*
X69947397Y-110873350D01*
X69449420Y-110757651D01*
X67707071Y-112500000D01*
X67692929Y-112500000D01*
X65950580Y-110757651D01*
X65452603Y-110873350D01*
X65271018Y-111269113D01*
X64753390Y-110750580D01*
X65957651Y-110750580D01*
X67700000Y-112492929D01*
X69442349Y-110750580D01*
X69326650Y-110252603D01*
X68342786Y-109801183D01*
X67261064Y-109760635D01*
X66246167Y-110137130D01*
X66073350Y-110252603D01*
X65957651Y-110750580D01*
X64753390Y-110750580D01*
X64704153Y-110701258D01*
X63924143Y-110377369D01*
X63079562Y-110376632D01*
X62298988Y-110699159D01*
X61701258Y-111295847D01*
X61399658Y-112022179D01*
X61100841Y-111298988D01*
X60504153Y-110701258D01*
X59724143Y-110377369D01*
X58879562Y-110376632D01*
X58098988Y-110699159D01*
X57501258Y-111295847D01*
X57177369Y-112075857D01*
X57176632Y-112920438D01*
X55115000Y-112920438D01*
X55115000Y-103420438D01*
X146876632Y-103420438D01*
X147199159Y-104201012D01*
X147795847Y-104798742D01*
X148522179Y-105100342D01*
X147798988Y-105399159D01*
X147201258Y-105995847D01*
X146877369Y-106775857D01*
X146876632Y-107620438D01*
X147199159Y-108401012D01*
X147795847Y-108998742D01*
X148575857Y-109322631D01*
X149420438Y-109323368D01*
X150201012Y-109000841D01*
X150798742Y-108404153D01*
X151103611Y-107669948D01*
X153926589Y-107669948D01*
X154287095Y-108542441D01*
X154954048Y-109210559D01*
X155825910Y-109572587D01*
X156769948Y-109573411D01*
X157642441Y-109212905D01*
X158310559Y-108545952D01*
X158672587Y-107674090D01*
X158673411Y-106730052D01*
X158312905Y-105857559D01*
X157645952Y-105189441D01*
X156774090Y-104827413D01*
X155830052Y-104826589D01*
X154957559Y-105187095D01*
X154289441Y-105854048D01*
X153927413Y-106725910D01*
X153926589Y-107669948D01*
X151103611Y-107669948D01*
X151122631Y-107624143D01*
X151123368Y-106779562D01*
X150800841Y-105998988D01*
X150204153Y-105401258D01*
X149477821Y-105099658D01*
X150201012Y-104800841D01*
X150798742Y-104204153D01*
X151122631Y-103424143D01*
X151123368Y-102579562D01*
X150800841Y-101798988D01*
X150243663Y-101240837D01*
X150453833Y-101162870D01*
X150626650Y-101047397D01*
X150742349Y-100549420D01*
X149000000Y-98807071D01*
X147257651Y-100549420D01*
X147373350Y-101047397D01*
X147769113Y-101228982D01*
X147201258Y-101795847D01*
X146877369Y-102575857D01*
X146876632Y-103420438D01*
X55115000Y-103420438D01*
X55115000Y-99238936D01*
X146260635Y-99238936D01*
X146637130Y-100253833D01*
X146752603Y-100426650D01*
X147250580Y-100542349D01*
X148992929Y-98800000D01*
X149007071Y-98800000D01*
X150749420Y-100542349D01*
X151247397Y-100426650D01*
X151698817Y-99442786D01*
X151705295Y-99269948D01*
X153926589Y-99269948D01*
X154287095Y-100142441D01*
X154954048Y-100810559D01*
X155825910Y-101172587D01*
X156769948Y-101173411D01*
X157642441Y-100812905D01*
X158310559Y-100145952D01*
X158672587Y-99274090D01*
X158673411Y-98330052D01*
X158312905Y-97457559D01*
X157645952Y-96789441D01*
X156774090Y-96427413D01*
X155830052Y-96426589D01*
X154957559Y-96787095D01*
X154289441Y-97454048D01*
X153927413Y-98325910D01*
X153926589Y-99269948D01*
X151705295Y-99269948D01*
X151739365Y-98361064D01*
X151362870Y-97346167D01*
X151247397Y-97173350D01*
X150749420Y-97057651D01*
X149007071Y-98800000D01*
X148992929Y-98800000D01*
X147250580Y-97057651D01*
X146752603Y-97173350D01*
X146301183Y-98157214D01*
X146260635Y-99238936D01*
X55115000Y-99238936D01*
X55115000Y-96780794D01*
X57226277Y-96780794D01*
X57262897Y-97211232D01*
X58011926Y-97554392D01*
X58835261Y-97584788D01*
X59607554Y-97297795D01*
X59737103Y-97211232D01*
X59750770Y-97050580D01*
X147257651Y-97050580D01*
X149000000Y-98792929D01*
X150742349Y-97050580D01*
X150626650Y-96552603D01*
X149642786Y-96101183D01*
X148561064Y-96060635D01*
X147546167Y-96437130D01*
X147373350Y-96552603D01*
X147257651Y-97050580D01*
X59750770Y-97050580D01*
X59773723Y-96780794D01*
X58500000Y-95507071D01*
X57226277Y-96780794D01*
X55115000Y-96780794D01*
X55115000Y-95835261D01*
X56415212Y-95835261D01*
X56702205Y-96607554D01*
X56788768Y-96737103D01*
X57219206Y-96773723D01*
X58492929Y-95500000D01*
X58507071Y-95500000D01*
X59780794Y-96773723D01*
X60211232Y-96737103D01*
X60554392Y-95988074D01*
X60584788Y-95164739D01*
X60297795Y-94392446D01*
X60211232Y-94262897D01*
X59780794Y-94226277D01*
X58507071Y-95500000D01*
X58492929Y-95500000D01*
X57219206Y-94226277D01*
X56788768Y-94262897D01*
X56445608Y-95011926D01*
X56415212Y-95835261D01*
X55115000Y-95835261D01*
X55115000Y-94219206D01*
X57226277Y-94219206D01*
X58500000Y-95492929D01*
X59773723Y-94219206D01*
X59737103Y-93788768D01*
X58988074Y-93445608D01*
X58164739Y-93415212D01*
X57392446Y-93702205D01*
X57262897Y-93788768D01*
X57226277Y-94219206D01*
X55115000Y-94219206D01*
X55115000Y-90791712D01*
X57026745Y-90791712D01*
X57250523Y-91333298D01*
X57664523Y-91748021D01*
X58205717Y-91972744D01*
X58791712Y-91973255D01*
X59333298Y-91749477D01*
X59748021Y-91335477D01*
X59972744Y-90794283D01*
X59973255Y-90208288D01*
X59749477Y-89666702D01*
X59335477Y-89251979D01*
X58794283Y-89027256D01*
X58208288Y-89026745D01*
X57666702Y-89250523D01*
X57251979Y-89664523D01*
X57027256Y-90205717D01*
X57026745Y-90791712D01*
X55115000Y-90791712D01*
X55115000Y-87420438D01*
X146876632Y-87420438D01*
X147199159Y-88201012D01*
X147795847Y-88798742D01*
X148522179Y-89100342D01*
X147798988Y-89399159D01*
X147201258Y-89995847D01*
X146877369Y-90775857D01*
X146876632Y-91620438D01*
X147199159Y-92401012D01*
X147795847Y-92998742D01*
X148575857Y-93322631D01*
X149420438Y-93323368D01*
X150201012Y-93000841D01*
X150798742Y-92404153D01*
X151103611Y-91669948D01*
X153926589Y-91669948D01*
X154287095Y-92542441D01*
X154954048Y-93210559D01*
X155825910Y-93572587D01*
X156769948Y-93573411D01*
X157642441Y-93212905D01*
X158310559Y-92545952D01*
X158672587Y-91674090D01*
X158673411Y-90730052D01*
X158312905Y-89857559D01*
X157645952Y-89189441D01*
X156774090Y-88827413D01*
X155830052Y-88826589D01*
X154957559Y-89187095D01*
X154289441Y-89854048D01*
X153927413Y-90725910D01*
X153926589Y-91669948D01*
X151103611Y-91669948D01*
X151122631Y-91624143D01*
X151122671Y-91578707D01*
X151198000Y-91200000D01*
X151123329Y-90824601D01*
X151123368Y-90779562D01*
X150800841Y-89998988D01*
X150204153Y-89401258D01*
X149477821Y-89099658D01*
X150201012Y-88800841D01*
X150798742Y-88204153D01*
X151122631Y-87424143D01*
X151123368Y-86579562D01*
X150800841Y-85798988D01*
X150243663Y-85240837D01*
X150453833Y-85162870D01*
X150626650Y-85047397D01*
X150742349Y-84549420D01*
X149000000Y-82807071D01*
X147257651Y-84549420D01*
X147373350Y-85047397D01*
X147769113Y-85228982D01*
X147201258Y-85795847D01*
X146877369Y-86575857D01*
X146876632Y-87420438D01*
X55115000Y-87420438D01*
X55115000Y-83238936D01*
X146260635Y-83238936D01*
X146637130Y-84253833D01*
X146752603Y-84426650D01*
X147250580Y-84542349D01*
X148992929Y-82800000D01*
X149007071Y-82800000D01*
X150749420Y-84542349D01*
X151247397Y-84426650D01*
X151698817Y-83442786D01*
X151705295Y-83269948D01*
X153926589Y-83269948D01*
X154287095Y-84142441D01*
X154954048Y-84810559D01*
X155825910Y-85172587D01*
X156769948Y-85173411D01*
X157642441Y-84812905D01*
X158310559Y-84145952D01*
X158672587Y-83274090D01*
X158673411Y-82330052D01*
X158312905Y-81457559D01*
X157645952Y-80789441D01*
X156774090Y-80427413D01*
X155830052Y-80426589D01*
X154957559Y-80787095D01*
X154289441Y-81454048D01*
X153927413Y-82325910D01*
X153926589Y-83269948D01*
X151705295Y-83269948D01*
X151739365Y-82361064D01*
X151362870Y-81346167D01*
X151247397Y-81173350D01*
X150749420Y-81057651D01*
X149007071Y-82800000D01*
X148992929Y-82800000D01*
X147250580Y-81057651D01*
X146752603Y-81173350D01*
X146301183Y-82157214D01*
X146260635Y-83238936D01*
X55115000Y-83238936D01*
X55115000Y-80469948D01*
X59626589Y-80469948D01*
X59987095Y-81342441D01*
X60654048Y-82010559D01*
X61525910Y-82372587D01*
X62469948Y-82373411D01*
X63342441Y-82012905D01*
X63425832Y-81929659D01*
X85077412Y-81929659D01*
X85223526Y-82453614D01*
X86297709Y-82946671D01*
X87478810Y-82991125D01*
X88587016Y-82580206D01*
X88776474Y-82453614D01*
X88922588Y-81929659D01*
X87000000Y-80007071D01*
X85077412Y-81929659D01*
X63425832Y-81929659D01*
X64010559Y-81345952D01*
X64370627Y-80478810D01*
X84008875Y-80478810D01*
X84419794Y-81587016D01*
X84546386Y-81776474D01*
X85070341Y-81922588D01*
X86992929Y-80000000D01*
X87007071Y-80000000D01*
X88929659Y-81922588D01*
X89453614Y-81776474D01*
X89786804Y-81050580D01*
X147257651Y-81050580D01*
X149000000Y-82792929D01*
X150742349Y-81050580D01*
X150626650Y-80552603D01*
X149642786Y-80101183D01*
X148561064Y-80060635D01*
X147546167Y-80437130D01*
X147373350Y-80552603D01*
X147257651Y-81050580D01*
X89786804Y-81050580D01*
X89946671Y-80702291D01*
X89991125Y-79521190D01*
X89580206Y-78412984D01*
X89453614Y-78223526D01*
X88929659Y-78077412D01*
X87007071Y-80000000D01*
X86992929Y-80000000D01*
X85070341Y-78077412D01*
X84546386Y-78223526D01*
X84053329Y-79297709D01*
X84008875Y-80478810D01*
X64370627Y-80478810D01*
X64372587Y-80474090D01*
X64373411Y-79530052D01*
X64012905Y-78657559D01*
X63426711Y-78070341D01*
X85077412Y-78070341D01*
X87000000Y-79992929D01*
X88922588Y-78070341D01*
X88776474Y-77546386D01*
X88486423Y-77413251D01*
X88722701Y-76844230D01*
X88723299Y-76158778D01*
X88461540Y-75525274D01*
X87977276Y-75040163D01*
X87344230Y-74777299D01*
X86658778Y-74776701D01*
X86025274Y-75038460D01*
X85540163Y-75522724D01*
X85277299Y-76155770D01*
X85276701Y-76841222D01*
X85502108Y-77386747D01*
X85412984Y-77419794D01*
X85223526Y-77546386D01*
X85077412Y-78070341D01*
X63426711Y-78070341D01*
X63345952Y-77989441D01*
X63064041Y-77872381D01*
X63459837Y-77477276D01*
X63722701Y-76844230D01*
X63723299Y-76158778D01*
X63461540Y-75525274D01*
X62977276Y-75040163D01*
X62344230Y-74777299D01*
X61658778Y-74776701D01*
X61025274Y-75038460D01*
X60540163Y-75522724D01*
X60277299Y-76155770D01*
X60276701Y-76841222D01*
X60538460Y-77474726D01*
X60935353Y-77872313D01*
X60657559Y-77987095D01*
X59989441Y-78654048D01*
X59627413Y-79525910D01*
X59626589Y-80469948D01*
X55115000Y-80469948D01*
X55115000Y-73780794D01*
X103226277Y-73780794D01*
X103262897Y-74211232D01*
X104011926Y-74554392D01*
X104835261Y-74584788D01*
X105607554Y-74297795D01*
X105737103Y-74211232D01*
X105773723Y-73780794D01*
X104500000Y-72507071D01*
X103226277Y-73780794D01*
X55115000Y-73780794D01*
X55115000Y-72835261D01*
X102415212Y-72835261D01*
X102702205Y-73607554D01*
X102788768Y-73737103D01*
X103219206Y-73773723D01*
X104492929Y-72500000D01*
X104507071Y-72500000D01*
X105780794Y-73773723D01*
X106158134Y-73741620D01*
X106164523Y-73748021D01*
X106705717Y-73972744D01*
X107291712Y-73973255D01*
X107833298Y-73749477D01*
X108248021Y-73335477D01*
X108249726Y-73331370D01*
X108250523Y-73333298D01*
X108664523Y-73748021D01*
X109205717Y-73972744D01*
X109791712Y-73973255D01*
X110333298Y-73749477D01*
X110748021Y-73335477D01*
X110749726Y-73331370D01*
X110750523Y-73333298D01*
X111164523Y-73748021D01*
X111705717Y-73972744D01*
X112291712Y-73973255D01*
X112833298Y-73749477D01*
X113248021Y-73335477D01*
X113249726Y-73331370D01*
X113250523Y-73333298D01*
X113664523Y-73748021D01*
X114205717Y-73972744D01*
X114791712Y-73973255D01*
X115257504Y-73780794D01*
X125226277Y-73780794D01*
X125262897Y-74211232D01*
X126011926Y-74554392D01*
X126835261Y-74584788D01*
X127607554Y-74297795D01*
X127737103Y-74211232D01*
X127773723Y-73780794D01*
X126500000Y-72507071D01*
X125226277Y-73780794D01*
X115257504Y-73780794D01*
X115333298Y-73749477D01*
X115748021Y-73335477D01*
X115955728Y-72835261D01*
X124415212Y-72835261D01*
X124702205Y-73607554D01*
X124788768Y-73737103D01*
X125219206Y-73773723D01*
X126492929Y-72500000D01*
X126507071Y-72500000D01*
X127780794Y-73773723D01*
X128158134Y-73741620D01*
X128164523Y-73748021D01*
X128705717Y-73972744D01*
X129291712Y-73973255D01*
X129833298Y-73749477D01*
X130248021Y-73335477D01*
X130249726Y-73331370D01*
X130250523Y-73333298D01*
X130664523Y-73748021D01*
X131205717Y-73972744D01*
X131791712Y-73973255D01*
X132333298Y-73749477D01*
X132748021Y-73335477D01*
X132749726Y-73331370D01*
X132750523Y-73333298D01*
X133164523Y-73748021D01*
X133705717Y-73972744D01*
X134291712Y-73973255D01*
X134833298Y-73749477D01*
X135248021Y-73335477D01*
X135249726Y-73331370D01*
X135250523Y-73333298D01*
X135664523Y-73748021D01*
X136205717Y-73972744D01*
X136791712Y-73973255D01*
X137333298Y-73749477D01*
X137748021Y-73335477D01*
X137766193Y-73291712D01*
X146526745Y-73291712D01*
X146750523Y-73833298D01*
X147164523Y-74248021D01*
X147705717Y-74472744D01*
X148291712Y-74473255D01*
X148757504Y-74280794D01*
X151726277Y-74280794D01*
X151762897Y-74711232D01*
X152511926Y-75054392D01*
X153335261Y-75084788D01*
X154107554Y-74797795D01*
X154237103Y-74711232D01*
X154273723Y-74280794D01*
X153000000Y-73007071D01*
X151726277Y-74280794D01*
X148757504Y-74280794D01*
X148833298Y-74249477D01*
X149248021Y-73835477D01*
X149455728Y-73335261D01*
X150915212Y-73335261D01*
X151202205Y-74107554D01*
X151288768Y-74237103D01*
X151719206Y-74273723D01*
X152992929Y-73000000D01*
X153007071Y-73000000D01*
X154280794Y-74273723D01*
X154711232Y-74237103D01*
X155054392Y-73488074D01*
X155084788Y-72664739D01*
X154797795Y-71892446D01*
X154711232Y-71762897D01*
X154280794Y-71726277D01*
X153007071Y-73000000D01*
X152992929Y-73000000D01*
X151719206Y-71726277D01*
X151288768Y-71762897D01*
X150945608Y-72511926D01*
X150915212Y-73335261D01*
X149455728Y-73335261D01*
X149472744Y-73294283D01*
X149473255Y-72708288D01*
X149249477Y-72166702D01*
X148835477Y-71751979D01*
X148756551Y-71719206D01*
X151726277Y-71719206D01*
X153000000Y-72992929D01*
X154273723Y-71719206D01*
X154237103Y-71288768D01*
X153488074Y-70945608D01*
X152664739Y-70915212D01*
X151892446Y-71202205D01*
X151762897Y-71288768D01*
X151726277Y-71719206D01*
X148756551Y-71719206D01*
X148294283Y-71527256D01*
X147708288Y-71526745D01*
X147166702Y-71750523D01*
X146751979Y-72164523D01*
X146527256Y-72705717D01*
X146526745Y-73291712D01*
X137766193Y-73291712D01*
X137972744Y-72794283D01*
X137973255Y-72208288D01*
X137749477Y-71666702D01*
X137335477Y-71251979D01*
X136794283Y-71027256D01*
X136208288Y-71026745D01*
X135666702Y-71250523D01*
X135251979Y-71664523D01*
X135250274Y-71668630D01*
X135249477Y-71666702D01*
X134835477Y-71251979D01*
X134294283Y-71027256D01*
X133708288Y-71026745D01*
X133166702Y-71250523D01*
X132751979Y-71664523D01*
X132750274Y-71668630D01*
X132749477Y-71666702D01*
X132335477Y-71251979D01*
X131794283Y-71027256D01*
X131208288Y-71026745D01*
X130666702Y-71250523D01*
X130251979Y-71664523D01*
X130250274Y-71668630D01*
X130249477Y-71666702D01*
X129835477Y-71251979D01*
X129294283Y-71027256D01*
X128708288Y-71026745D01*
X128166702Y-71250523D01*
X128158777Y-71258434D01*
X127780794Y-71226277D01*
X126507071Y-72500000D01*
X126492929Y-72500000D01*
X125219206Y-71226277D01*
X124788768Y-71262897D01*
X124445608Y-72011926D01*
X124415212Y-72835261D01*
X115955728Y-72835261D01*
X115972744Y-72794283D01*
X115973255Y-72208288D01*
X115749477Y-71666702D01*
X115335477Y-71251979D01*
X115256551Y-71219206D01*
X125226277Y-71219206D01*
X126500000Y-72492929D01*
X127773723Y-71219206D01*
X127737103Y-70788768D01*
X126988074Y-70445608D01*
X126164739Y-70415212D01*
X125392446Y-70702205D01*
X125262897Y-70788768D01*
X125226277Y-71219206D01*
X115256551Y-71219206D01*
X114794283Y-71027256D01*
X114208288Y-71026745D01*
X113666702Y-71250523D01*
X113251979Y-71664523D01*
X113250274Y-71668630D01*
X113249477Y-71666702D01*
X112835477Y-71251979D01*
X112294283Y-71027256D01*
X111708288Y-71026745D01*
X111166702Y-71250523D01*
X110751979Y-71664523D01*
X110750274Y-71668630D01*
X110749477Y-71666702D01*
X110335477Y-71251979D01*
X109794283Y-71027256D01*
X109208288Y-71026745D01*
X108666702Y-71250523D01*
X108251979Y-71664523D01*
X108250274Y-71668630D01*
X108249477Y-71666702D01*
X107835477Y-71251979D01*
X107294283Y-71027256D01*
X106708288Y-71026745D01*
X106166702Y-71250523D01*
X106158777Y-71258434D01*
X105780794Y-71226277D01*
X104507071Y-72500000D01*
X104492929Y-72500000D01*
X103219206Y-71226277D01*
X102788768Y-71262897D01*
X102445608Y-72011926D01*
X102415212Y-72835261D01*
X55115000Y-72835261D01*
X55115000Y-71219206D01*
X103226277Y-71219206D01*
X104500000Y-72492929D01*
X105773723Y-71219206D01*
X105737103Y-70788768D01*
X104988074Y-70445608D01*
X104164739Y-70415212D01*
X103392446Y-70702205D01*
X103262897Y-70788768D01*
X103226277Y-71219206D01*
X55115000Y-71219206D01*
X55115000Y-68115000D01*
X158885000Y-68115000D01*
X158885000Y-128885000D01*
X158885000Y-128885000D01*
G37*
X158885000Y-128885000D02*
X55115000Y-128885000D01*
X55115000Y-120269948D01*
X56926589Y-120269948D01*
X57287095Y-121142441D01*
X57954048Y-121810559D01*
X58825910Y-122172587D01*
X59769948Y-122173411D01*
X60642441Y-121812905D01*
X61310559Y-121145952D01*
X61672587Y-120274090D01*
X61672590Y-120269948D01*
X65326589Y-120269948D01*
X65687095Y-121142441D01*
X66354048Y-121810559D01*
X67225910Y-122172587D01*
X68169948Y-122173411D01*
X69042441Y-121812905D01*
X69710559Y-121145952D01*
X70072587Y-120274090D01*
X70072590Y-120269948D01*
X72926589Y-120269948D01*
X73287095Y-121142441D01*
X73954048Y-121810559D01*
X74825910Y-122172587D01*
X75769948Y-122173411D01*
X76642441Y-121812905D01*
X77310559Y-121145952D01*
X77672587Y-120274090D01*
X77672590Y-120269948D01*
X81326589Y-120269948D01*
X81687095Y-121142441D01*
X82354048Y-121810559D01*
X83225910Y-122172587D01*
X84169948Y-122173411D01*
X85042441Y-121812905D01*
X85710559Y-121145952D01*
X86072587Y-120274090D01*
X86072590Y-120269948D01*
X88426589Y-120269948D01*
X88787095Y-121142441D01*
X89454048Y-121810559D01*
X90325910Y-122172587D01*
X91269948Y-122173411D01*
X92142441Y-121812905D01*
X92810559Y-121145952D01*
X93172587Y-120274090D01*
X93172590Y-120269948D01*
X96826589Y-120269948D01*
X97187095Y-121142441D01*
X97854048Y-121810559D01*
X98725910Y-122172587D01*
X99669948Y-122173411D01*
X100542441Y-121812905D01*
X101210559Y-121145952D01*
X101572587Y-120274090D01*
X101572590Y-120269948D01*
X103926589Y-120269948D01*
X104287095Y-121142441D01*
X104954048Y-121810559D01*
X105825910Y-122172587D01*
X106769948Y-122173411D01*
X107642441Y-121812905D01*
X108310559Y-121145952D01*
X108672587Y-120274090D01*
X108672590Y-120269948D01*
X112326589Y-120269948D01*
X112687095Y-121142441D01*
X113354048Y-121810559D01*
X114225910Y-122172587D01*
X115169948Y-122173411D01*
X116042441Y-121812905D01*
X116710559Y-121145952D01*
X117072587Y-120274090D01*
X117072590Y-120269948D01*
X119926589Y-120269948D01*
X120287095Y-121142441D01*
X120954048Y-121810559D01*
X121825910Y-122172587D01*
X122769948Y-122173411D01*
X123642441Y-121812905D01*
X124310559Y-121145952D01*
X124672587Y-120274090D01*
X124672590Y-120269948D01*
X128326589Y-120269948D01*
X128687095Y-121142441D01*
X129354048Y-121810559D01*
X130225910Y-122172587D01*
X131169948Y-122173411D01*
X132042441Y-121812905D01*
X132710559Y-121145952D01*
X133072587Y-120274090D01*
X133072590Y-120269948D01*
X135926589Y-120269948D01*
X136287095Y-121142441D01*
X136954048Y-121810559D01*
X137825910Y-122172587D01*
X138769948Y-122173411D01*
X139642441Y-121812905D01*
X140310559Y-121145952D01*
X140672587Y-120274090D01*
X140672590Y-120269948D01*
X144326589Y-120269948D01*
X144687095Y-121142441D01*
X145354048Y-121810559D01*
X146225910Y-122172587D01*
X147169948Y-122173411D01*
X148042441Y-121812905D01*
X148710559Y-121145952D01*
X149072587Y-120274090D01*
X149073411Y-119330052D01*
X148712905Y-118457559D01*
X148045952Y-117789441D01*
X147174090Y-117427413D01*
X146230052Y-117426589D01*
X145357559Y-117787095D01*
X144689441Y-118454048D01*
X144327413Y-119325910D01*
X144326589Y-120269948D01*
X140672590Y-120269948D01*
X140673411Y-119330052D01*
X140312905Y-118457559D01*
X139645952Y-117789441D01*
X138774090Y-117427413D01*
X137830052Y-117426589D01*
X136957559Y-117787095D01*
X136289441Y-118454048D01*
X135927413Y-119325910D01*
X135926589Y-120269948D01*
X133072590Y-120269948D01*
X133073411Y-119330052D01*
X132712905Y-118457559D01*
X132045952Y-117789441D01*
X131174090Y-117427413D01*
X130230052Y-117426589D01*
X129357559Y-117787095D01*
X128689441Y-118454048D01*
X128327413Y-119325910D01*
X128326589Y-120269948D01*
X124672590Y-120269948D01*
X124673411Y-119330052D01*
X124312905Y-118457559D01*
X123645952Y-117789441D01*
X122774090Y-117427413D01*
X121830052Y-117426589D01*
X120957559Y-117787095D01*
X120289441Y-118454048D01*
X119927413Y-119325910D01*
X119926589Y-120269948D01*
X117072590Y-120269948D01*
X117073411Y-119330052D01*
X116712905Y-118457559D01*
X116045952Y-117789441D01*
X115174090Y-117427413D01*
X114230052Y-117426589D01*
X113357559Y-117787095D01*
X112689441Y-118454048D01*
X112327413Y-119325910D01*
X112326589Y-120269948D01*
X108672590Y-120269948D01*
X108673411Y-119330052D01*
X108312905Y-118457559D01*
X107645952Y-117789441D01*
X106774090Y-117427413D01*
X105830052Y-117426589D01*
X104957559Y-117787095D01*
X104289441Y-118454048D01*
X103927413Y-119325910D01*
X103926589Y-120269948D01*
X101572590Y-120269948D01*
X101573411Y-119330052D01*
X101212905Y-118457559D01*
X100545952Y-117789441D01*
X99674090Y-117427413D01*
X98730052Y-117426589D01*
X97857559Y-117787095D01*
X97189441Y-118454048D01*
X96827413Y-119325910D01*
X96826589Y-120269948D01*
X93172590Y-120269948D01*
X93173411Y-119330052D01*
X92812905Y-118457559D01*
X92145952Y-117789441D01*
X91274090Y-117427413D01*
X90330052Y-117426589D01*
X89457559Y-117787095D01*
X88789441Y-118454048D01*
X88427413Y-119325910D01*
X88426589Y-120269948D01*
X86072590Y-120269948D01*
X86073411Y-119330052D01*
X85712905Y-118457559D01*
X85045952Y-117789441D01*
X84174090Y-117427413D01*
X83230052Y-117426589D01*
X82357559Y-117787095D01*
X81689441Y-118454048D01*
X81327413Y-119325910D01*
X81326589Y-120269948D01*
X77672590Y-120269948D01*
X77673411Y-119330052D01*
X77312905Y-118457559D01*
X76645952Y-117789441D01*
X75774090Y-117427413D01*
X74830052Y-117426589D01*
X73957559Y-117787095D01*
X73289441Y-118454048D01*
X72927413Y-119325910D01*
X72926589Y-120269948D01*
X70072590Y-120269948D01*
X70073411Y-119330052D01*
X69712905Y-118457559D01*
X69045952Y-117789441D01*
X68174090Y-117427413D01*
X67230052Y-117426589D01*
X66357559Y-117787095D01*
X65689441Y-118454048D01*
X65327413Y-119325910D01*
X65326589Y-120269948D01*
X61672590Y-120269948D01*
X61673411Y-119330052D01*
X61312905Y-118457559D01*
X60645952Y-117789441D01*
X59774090Y-117427413D01*
X58830052Y-117426589D01*
X57957559Y-117787095D01*
X57289441Y-118454048D01*
X56927413Y-119325910D01*
X56926589Y-120269948D01*
X55115000Y-120269948D01*
X55115000Y-112920438D01*
X57176632Y-112920438D01*
X57499159Y-113701012D01*
X58095847Y-114298742D01*
X58875857Y-114622631D01*
X59720438Y-114623368D01*
X60501012Y-114300841D01*
X61098742Y-113704153D01*
X61400342Y-112977821D01*
X61699159Y-113701012D01*
X62295847Y-114298742D01*
X63075857Y-114622631D01*
X63920438Y-114623368D01*
X64701012Y-114300841D01*
X64752522Y-114249420D01*
X65957651Y-114249420D01*
X66073350Y-114747397D01*
X67057214Y-115198817D01*
X68138936Y-115239365D01*
X69153833Y-114862870D01*
X69326650Y-114747397D01*
X69442349Y-114249420D01*
X67700000Y-112507071D01*
X65957651Y-114249420D01*
X64752522Y-114249420D01*
X65259163Y-113743663D01*
X65337130Y-113953833D01*
X65452603Y-114126650D01*
X65950580Y-114242349D01*
X67692929Y-112500000D01*
X67707071Y-112500000D01*
X69449420Y-114242349D01*
X69947397Y-114126650D01*
X70398817Y-113142786D01*
X70407151Y-112920438D01*
X73176632Y-112920438D01*
X73499159Y-113701012D01*
X74095847Y-114298742D01*
X74875857Y-114622631D01*
X75720438Y-114623368D01*
X76501012Y-114300841D01*
X77098742Y-113704153D01*
X77400342Y-112977821D01*
X77699159Y-113701012D01*
X78295847Y-114298742D01*
X79075857Y-114622631D01*
X79920438Y-114623368D01*
X80701012Y-114300841D01*
X80752522Y-114249420D01*
X81957651Y-114249420D01*
X82073350Y-114747397D01*
X83057214Y-115198817D01*
X84138936Y-115239365D01*
X85153833Y-114862870D01*
X85326650Y-114747397D01*
X85442349Y-114249420D01*
X83700000Y-112507071D01*
X81957651Y-114249420D01*
X80752522Y-114249420D01*
X81259163Y-113743663D01*
X81337130Y-113953833D01*
X81452603Y-114126650D01*
X81950580Y-114242349D01*
X83692929Y-112500000D01*
X83707071Y-112500000D01*
X85449420Y-114242349D01*
X85947397Y-114126650D01*
X86398817Y-113142786D01*
X86407151Y-112920438D01*
X88676632Y-112920438D01*
X88999159Y-113701012D01*
X89595847Y-114298742D01*
X89909383Y-114428934D01*
X90094307Y-114705693D01*
X90418082Y-114922032D01*
X90800000Y-114998000D01*
X91181918Y-114922032D01*
X91505693Y-114705693D01*
X91690470Y-114429155D01*
X92001012Y-114300841D01*
X92598742Y-113704153D01*
X92900342Y-112977821D01*
X93199159Y-113701012D01*
X93795847Y-114298742D01*
X94575857Y-114622631D01*
X95420438Y-114623368D01*
X96201012Y-114300841D01*
X96252522Y-114249420D01*
X97457651Y-114249420D01*
X97573350Y-114747397D01*
X98557214Y-115198817D01*
X99638936Y-115239365D01*
X100653833Y-114862870D01*
X100826650Y-114747397D01*
X100942349Y-114249420D01*
X99200000Y-112507071D01*
X97457651Y-114249420D01*
X96252522Y-114249420D01*
X96759163Y-113743663D01*
X96837130Y-113953833D01*
X96952603Y-114126650D01*
X97450580Y-114242349D01*
X99192929Y-112500000D01*
X99207071Y-112500000D01*
X100949420Y-114242349D01*
X101447397Y-114126650D01*
X101898817Y-113142786D01*
X101907151Y-112920438D01*
X104176632Y-112920438D01*
X104499159Y-113701012D01*
X105095847Y-114298742D01*
X105875857Y-114622631D01*
X106720438Y-114623368D01*
X107501012Y-114300841D01*
X108098742Y-113704153D01*
X108400342Y-112977821D01*
X108699159Y-113701012D01*
X109295847Y-114298742D01*
X110075857Y-114622631D01*
X110920438Y-114623368D01*
X111701012Y-114300841D01*
X111752522Y-114249420D01*
X112957651Y-114249420D01*
X113073350Y-114747397D01*
X114057214Y-115198817D01*
X115138936Y-115239365D01*
X116153833Y-114862870D01*
X116326650Y-114747397D01*
X116442349Y-114249420D01*
X114700000Y-112507071D01*
X112957651Y-114249420D01*
X111752522Y-114249420D01*
X112259163Y-113743663D01*
X112337130Y-113953833D01*
X112452603Y-114126650D01*
X112950580Y-114242349D01*
X114692929Y-112500000D01*
X114707071Y-112500000D01*
X116449420Y-114242349D01*
X116947397Y-114126650D01*
X117398817Y-113142786D01*
X117407151Y-112920438D01*
X120176632Y-112920438D01*
X120499159Y-113701012D01*
X121095847Y-114298742D01*
X121875857Y-114622631D01*
X122720438Y-114623368D01*
X123501012Y-114300841D01*
X124098742Y-113704153D01*
X124400342Y-112977821D01*
X124699159Y-113701012D01*
X125295847Y-114298742D01*
X126075857Y-114622631D01*
X126920438Y-114623368D01*
X127701012Y-114300841D01*
X127752522Y-114249420D01*
X128957651Y-114249420D01*
X129073350Y-114747397D01*
X130057214Y-115198817D01*
X131138936Y-115239365D01*
X132153833Y-114862870D01*
X132326650Y-114747397D01*
X132442349Y-114249420D01*
X130700000Y-112507071D01*
X128957651Y-114249420D01*
X127752522Y-114249420D01*
X128259163Y-113743663D01*
X128337130Y-113953833D01*
X128452603Y-114126650D01*
X128950580Y-114242349D01*
X130692929Y-112500000D01*
X130707071Y-112500000D01*
X132449420Y-114242349D01*
X132947397Y-114126650D01*
X133398817Y-113142786D01*
X133407151Y-112920438D01*
X136176632Y-112920438D01*
X136499159Y-113701012D01*
X137095847Y-114298742D01*
X137875857Y-114622631D01*
X138720438Y-114623368D01*
X139501012Y-114300841D01*
X140098742Y-113704153D01*
X140400342Y-112977821D01*
X140699159Y-113701012D01*
X141295847Y-114298742D01*
X142075857Y-114622631D01*
X142920438Y-114623368D01*
X143701012Y-114300841D01*
X143752522Y-114249420D01*
X144957651Y-114249420D01*
X145073350Y-114747397D01*
X146057214Y-115198817D01*
X147138936Y-115239365D01*
X148153833Y-114862870D01*
X148326650Y-114747397D01*
X148442349Y-114249420D01*
X146700000Y-112507071D01*
X144957651Y-114249420D01*
X143752522Y-114249420D01*
X144259163Y-113743663D01*
X144337130Y-113953833D01*
X144452603Y-114126650D01*
X144950580Y-114242349D01*
X146692929Y-112500000D01*
X146707071Y-112500000D01*
X148449420Y-114242349D01*
X148947397Y-114126650D01*
X149398817Y-113142786D01*
X149439365Y-112061064D01*
X149062870Y-111046167D01*
X148947397Y-110873350D01*
X148449420Y-110757651D01*
X146707071Y-112500000D01*
X146692929Y-112500000D01*
X144950580Y-110757651D01*
X144452603Y-110873350D01*
X144271018Y-111269113D01*
X143753390Y-110750580D01*
X144957651Y-110750580D01*
X146700000Y-112492929D01*
X148442349Y-110750580D01*
X148326650Y-110252603D01*
X147342786Y-109801183D01*
X146261064Y-109760635D01*
X145246167Y-110137130D01*
X145073350Y-110252603D01*
X144957651Y-110750580D01*
X143753390Y-110750580D01*
X143704153Y-110701258D01*
X142924143Y-110377369D01*
X142079562Y-110376632D01*
X141298988Y-110699159D01*
X140701258Y-111295847D01*
X140399658Y-112022179D01*
X140100841Y-111298988D01*
X139504153Y-110701258D01*
X138724143Y-110377369D01*
X137879562Y-110376632D01*
X137098988Y-110699159D01*
X136501258Y-111295847D01*
X136177369Y-112075857D01*
X136176632Y-112920438D01*
X133407151Y-112920438D01*
X133439365Y-112061064D01*
X133062870Y-111046167D01*
X132947397Y-110873350D01*
X132449420Y-110757651D01*
X130707071Y-112500000D01*
X130692929Y-112500000D01*
X128950580Y-110757651D01*
X128452603Y-110873350D01*
X128271018Y-111269113D01*
X127753390Y-110750580D01*
X128957651Y-110750580D01*
X130700000Y-112492929D01*
X132442349Y-110750580D01*
X132326650Y-110252603D01*
X131342786Y-109801183D01*
X130261064Y-109760635D01*
X129246167Y-110137130D01*
X129073350Y-110252603D01*
X128957651Y-110750580D01*
X127753390Y-110750580D01*
X127704153Y-110701258D01*
X126924143Y-110377369D01*
X126079562Y-110376632D01*
X125298988Y-110699159D01*
X124701258Y-111295847D01*
X124399658Y-112022179D01*
X124100841Y-111298988D01*
X123504153Y-110701258D01*
X122724143Y-110377369D01*
X121879562Y-110376632D01*
X121098988Y-110699159D01*
X120501258Y-111295847D01*
X120177369Y-112075857D01*
X120176632Y-112920438D01*
X117407151Y-112920438D01*
X117439365Y-112061064D01*
X117062870Y-111046167D01*
X116947397Y-110873350D01*
X116449420Y-110757651D01*
X114707071Y-112500000D01*
X114692929Y-112500000D01*
X112950580Y-110757651D01*
X112452603Y-110873350D01*
X112271018Y-111269113D01*
X111753390Y-110750580D01*
X112957651Y-110750580D01*
X114700000Y-112492929D01*
X116442349Y-110750580D01*
X116326650Y-110252603D01*
X115342786Y-109801183D01*
X114261064Y-109760635D01*
X113246167Y-110137130D01*
X113073350Y-110252603D01*
X112957651Y-110750580D01*
X111753390Y-110750580D01*
X111704153Y-110701258D01*
X110924143Y-110377369D01*
X110079562Y-110376632D01*
X109298988Y-110699159D01*
X108701258Y-111295847D01*
X108399658Y-112022179D01*
X108100841Y-111298988D01*
X107504153Y-110701258D01*
X106724143Y-110377369D01*
X105879562Y-110376632D01*
X105098988Y-110699159D01*
X104501258Y-111295847D01*
X104177369Y-112075857D01*
X104176632Y-112920438D01*
X101907151Y-112920438D01*
X101939365Y-112061064D01*
X101562870Y-111046167D01*
X101447397Y-110873350D01*
X100949420Y-110757651D01*
X99207071Y-112500000D01*
X99192929Y-112500000D01*
X97450580Y-110757651D01*
X96952603Y-110873350D01*
X96771018Y-111269113D01*
X96253390Y-110750580D01*
X97457651Y-110750580D01*
X99200000Y-112492929D01*
X100942349Y-110750580D01*
X100826650Y-110252603D01*
X99842786Y-109801183D01*
X98761064Y-109760635D01*
X97746167Y-110137130D01*
X97573350Y-110252603D01*
X97457651Y-110750580D01*
X96253390Y-110750580D01*
X96204153Y-110701258D01*
X95424143Y-110377369D01*
X94579562Y-110376632D01*
X93798988Y-110699159D01*
X93201258Y-111295847D01*
X92899658Y-112022179D01*
X92600841Y-111298988D01*
X92004153Y-110701258D01*
X91224143Y-110377369D01*
X90379562Y-110376632D01*
X89598988Y-110699159D01*
X89001258Y-111295847D01*
X88677369Y-112075857D01*
X88676632Y-112920438D01*
X86407151Y-112920438D01*
X86439365Y-112061064D01*
X86062870Y-111046167D01*
X85947397Y-110873350D01*
X85449420Y-110757651D01*
X83707071Y-112500000D01*
X83692929Y-112500000D01*
X81950580Y-110757651D01*
X81452603Y-110873350D01*
X81271018Y-111269113D01*
X80753390Y-110750580D01*
X81957651Y-110750580D01*
X83700000Y-112492929D01*
X85442349Y-110750580D01*
X85326650Y-110252603D01*
X84342786Y-109801183D01*
X83261064Y-109760635D01*
X82246167Y-110137130D01*
X82073350Y-110252603D01*
X81957651Y-110750580D01*
X80753390Y-110750580D01*
X80704153Y-110701258D01*
X79924143Y-110377369D01*
X79079562Y-110376632D01*
X78298988Y-110699159D01*
X77701258Y-111295847D01*
X77399658Y-112022179D01*
X77100841Y-111298988D01*
X76504153Y-110701258D01*
X75724143Y-110377369D01*
X74879562Y-110376632D01*
X74098988Y-110699159D01*
X73501258Y-111295847D01*
X73177369Y-112075857D01*
X73176632Y-112920438D01*
X70407151Y-112920438D01*
X70439365Y-112061064D01*
X70062870Y-111046167D01*
X69947397Y-110873350D01*
X69449420Y-110757651D01*
X67707071Y-112500000D01*
X67692929Y-112500000D01*
X65950580Y-110757651D01*
X65452603Y-110873350D01*
X65271018Y-111269113D01*
X64753390Y-110750580D01*
X65957651Y-110750580D01*
X67700000Y-112492929D01*
X69442349Y-110750580D01*
X69326650Y-110252603D01*
X68342786Y-109801183D01*
X67261064Y-109760635D01*
X66246167Y-110137130D01*
X66073350Y-110252603D01*
X65957651Y-110750580D01*
X64753390Y-110750580D01*
X64704153Y-110701258D01*
X63924143Y-110377369D01*
X63079562Y-110376632D01*
X62298988Y-110699159D01*
X61701258Y-111295847D01*
X61399658Y-112022179D01*
X61100841Y-111298988D01*
X60504153Y-110701258D01*
X59724143Y-110377369D01*
X58879562Y-110376632D01*
X58098988Y-110699159D01*
X57501258Y-111295847D01*
X57177369Y-112075857D01*
X57176632Y-112920438D01*
X55115000Y-112920438D01*
X55115000Y-103420438D01*
X146876632Y-103420438D01*
X147199159Y-104201012D01*
X147795847Y-104798742D01*
X148522179Y-105100342D01*
X147798988Y-105399159D01*
X147201258Y-105995847D01*
X146877369Y-106775857D01*
X146876632Y-107620438D01*
X147199159Y-108401012D01*
X147795847Y-108998742D01*
X148575857Y-109322631D01*
X149420438Y-109323368D01*
X150201012Y-109000841D01*
X150798742Y-108404153D01*
X151103611Y-107669948D01*
X153926589Y-107669948D01*
X154287095Y-108542441D01*
X154954048Y-109210559D01*
X155825910Y-109572587D01*
X156769948Y-109573411D01*
X157642441Y-109212905D01*
X158310559Y-108545952D01*
X158672587Y-107674090D01*
X158673411Y-106730052D01*
X158312905Y-105857559D01*
X157645952Y-105189441D01*
X156774090Y-104827413D01*
X155830052Y-104826589D01*
X154957559Y-105187095D01*
X154289441Y-105854048D01*
X153927413Y-106725910D01*
X153926589Y-107669948D01*
X151103611Y-107669948D01*
X151122631Y-107624143D01*
X151123368Y-106779562D01*
X150800841Y-105998988D01*
X150204153Y-105401258D01*
X149477821Y-105099658D01*
X150201012Y-104800841D01*
X150798742Y-104204153D01*
X151122631Y-103424143D01*
X151123368Y-102579562D01*
X150800841Y-101798988D01*
X150243663Y-101240837D01*
X150453833Y-101162870D01*
X150626650Y-101047397D01*
X150742349Y-100549420D01*
X149000000Y-98807071D01*
X147257651Y-100549420D01*
X147373350Y-101047397D01*
X147769113Y-101228982D01*
X147201258Y-101795847D01*
X146877369Y-102575857D01*
X146876632Y-103420438D01*
X55115000Y-103420438D01*
X55115000Y-99238936D01*
X146260635Y-99238936D01*
X146637130Y-100253833D01*
X146752603Y-100426650D01*
X147250580Y-100542349D01*
X148992929Y-98800000D01*
X149007071Y-98800000D01*
X150749420Y-100542349D01*
X151247397Y-100426650D01*
X151698817Y-99442786D01*
X151705295Y-99269948D01*
X153926589Y-99269948D01*
X154287095Y-100142441D01*
X154954048Y-100810559D01*
X155825910Y-101172587D01*
X156769948Y-101173411D01*
X157642441Y-100812905D01*
X158310559Y-100145952D01*
X158672587Y-99274090D01*
X158673411Y-98330052D01*
X158312905Y-97457559D01*
X157645952Y-96789441D01*
X156774090Y-96427413D01*
X155830052Y-96426589D01*
X154957559Y-96787095D01*
X154289441Y-97454048D01*
X153927413Y-98325910D01*
X153926589Y-99269948D01*
X151705295Y-99269948D01*
X151739365Y-98361064D01*
X151362870Y-97346167D01*
X151247397Y-97173350D01*
X150749420Y-97057651D01*
X149007071Y-98800000D01*
X148992929Y-98800000D01*
X147250580Y-97057651D01*
X146752603Y-97173350D01*
X146301183Y-98157214D01*
X146260635Y-99238936D01*
X55115000Y-99238936D01*
X55115000Y-96780794D01*
X57226277Y-96780794D01*
X57262897Y-97211232D01*
X58011926Y-97554392D01*
X58835261Y-97584788D01*
X59607554Y-97297795D01*
X59737103Y-97211232D01*
X59750770Y-97050580D01*
X147257651Y-97050580D01*
X149000000Y-98792929D01*
X150742349Y-97050580D01*
X150626650Y-96552603D01*
X149642786Y-96101183D01*
X148561064Y-96060635D01*
X147546167Y-96437130D01*
X147373350Y-96552603D01*
X147257651Y-97050580D01*
X59750770Y-97050580D01*
X59773723Y-96780794D01*
X58500000Y-95507071D01*
X57226277Y-96780794D01*
X55115000Y-96780794D01*
X55115000Y-95835261D01*
X56415212Y-95835261D01*
X56702205Y-96607554D01*
X56788768Y-96737103D01*
X57219206Y-96773723D01*
X58492929Y-95500000D01*
X58507071Y-95500000D01*
X59780794Y-96773723D01*
X60211232Y-96737103D01*
X60554392Y-95988074D01*
X60584788Y-95164739D01*
X60297795Y-94392446D01*
X60211232Y-94262897D01*
X59780794Y-94226277D01*
X58507071Y-95500000D01*
X58492929Y-95500000D01*
X57219206Y-94226277D01*
X56788768Y-94262897D01*
X56445608Y-95011926D01*
X56415212Y-95835261D01*
X55115000Y-95835261D01*
X55115000Y-94219206D01*
X57226277Y-94219206D01*
X58500000Y-95492929D01*
X59773723Y-94219206D01*
X59737103Y-93788768D01*
X58988074Y-93445608D01*
X58164739Y-93415212D01*
X57392446Y-93702205D01*
X57262897Y-93788768D01*
X57226277Y-94219206D01*
X55115000Y-94219206D01*
X55115000Y-90791712D01*
X57026745Y-90791712D01*
X57250523Y-91333298D01*
X57664523Y-91748021D01*
X58205717Y-91972744D01*
X58791712Y-91973255D01*
X59333298Y-91749477D01*
X59748021Y-91335477D01*
X59972744Y-90794283D01*
X59973255Y-90208288D01*
X59749477Y-89666702D01*
X59335477Y-89251979D01*
X58794283Y-89027256D01*
X58208288Y-89026745D01*
X57666702Y-89250523D01*
X57251979Y-89664523D01*
X57027256Y-90205717D01*
X57026745Y-90791712D01*
X55115000Y-90791712D01*
X55115000Y-87420438D01*
X146876632Y-87420438D01*
X147199159Y-88201012D01*
X147795847Y-88798742D01*
X148522179Y-89100342D01*
X147798988Y-89399159D01*
X147201258Y-89995847D01*
X146877369Y-90775857D01*
X146876632Y-91620438D01*
X147199159Y-92401012D01*
X147795847Y-92998742D01*
X148575857Y-93322631D01*
X149420438Y-93323368D01*
X150201012Y-93000841D01*
X150798742Y-92404153D01*
X151103611Y-91669948D01*
X153926589Y-91669948D01*
X154287095Y-92542441D01*
X154954048Y-93210559D01*
X155825910Y-93572587D01*
X156769948Y-93573411D01*
X157642441Y-93212905D01*
X158310559Y-92545952D01*
X158672587Y-91674090D01*
X158673411Y-90730052D01*
X158312905Y-89857559D01*
X157645952Y-89189441D01*
X156774090Y-88827413D01*
X155830052Y-88826589D01*
X154957559Y-89187095D01*
X154289441Y-89854048D01*
X153927413Y-90725910D01*
X153926589Y-91669948D01*
X151103611Y-91669948D01*
X151122631Y-91624143D01*
X151122671Y-91578707D01*
X151198000Y-91200000D01*
X151123329Y-90824601D01*
X151123368Y-90779562D01*
X150800841Y-89998988D01*
X150204153Y-89401258D01*
X149477821Y-89099658D01*
X150201012Y-88800841D01*
X150798742Y-88204153D01*
X151122631Y-87424143D01*
X151123368Y-86579562D01*
X150800841Y-85798988D01*
X150243663Y-85240837D01*
X150453833Y-85162870D01*
X150626650Y-85047397D01*
X150742349Y-84549420D01*
X149000000Y-82807071D01*
X147257651Y-84549420D01*
X147373350Y-85047397D01*
X147769113Y-85228982D01*
X147201258Y-85795847D01*
X146877369Y-86575857D01*
X146876632Y-87420438D01*
X55115000Y-87420438D01*
X55115000Y-83238936D01*
X146260635Y-83238936D01*
X146637130Y-84253833D01*
X146752603Y-84426650D01*
X147250580Y-84542349D01*
X148992929Y-82800000D01*
X149007071Y-82800000D01*
X150749420Y-84542349D01*
X151247397Y-84426650D01*
X151698817Y-83442786D01*
X151705295Y-83269948D01*
X153926589Y-83269948D01*
X154287095Y-84142441D01*
X154954048Y-84810559D01*
X155825910Y-85172587D01*
X156769948Y-85173411D01*
X157642441Y-84812905D01*
X158310559Y-84145952D01*
X158672587Y-83274090D01*
X158673411Y-82330052D01*
X158312905Y-81457559D01*
X157645952Y-80789441D01*
X156774090Y-80427413D01*
X155830052Y-80426589D01*
X154957559Y-80787095D01*
X154289441Y-81454048D01*
X153927413Y-82325910D01*
X153926589Y-83269948D01*
X151705295Y-83269948D01*
X151739365Y-82361064D01*
X151362870Y-81346167D01*
X151247397Y-81173350D01*
X150749420Y-81057651D01*
X149007071Y-82800000D01*
X148992929Y-82800000D01*
X147250580Y-81057651D01*
X146752603Y-81173350D01*
X146301183Y-82157214D01*
X146260635Y-83238936D01*
X55115000Y-83238936D01*
X55115000Y-80469948D01*
X59626589Y-80469948D01*
X59987095Y-81342441D01*
X60654048Y-82010559D01*
X61525910Y-82372587D01*
X62469948Y-82373411D01*
X63342441Y-82012905D01*
X63425832Y-81929659D01*
X85077412Y-81929659D01*
X85223526Y-82453614D01*
X86297709Y-82946671D01*
X87478810Y-82991125D01*
X88587016Y-82580206D01*
X88776474Y-82453614D01*
X88922588Y-81929659D01*
X87000000Y-80007071D01*
X85077412Y-81929659D01*
X63425832Y-81929659D01*
X64010559Y-81345952D01*
X64370627Y-80478810D01*
X84008875Y-80478810D01*
X84419794Y-81587016D01*
X84546386Y-81776474D01*
X85070341Y-81922588D01*
X86992929Y-80000000D01*
X87007071Y-80000000D01*
X88929659Y-81922588D01*
X89453614Y-81776474D01*
X89786804Y-81050580D01*
X147257651Y-81050580D01*
X149000000Y-82792929D01*
X150742349Y-81050580D01*
X150626650Y-80552603D01*
X149642786Y-80101183D01*
X148561064Y-80060635D01*
X147546167Y-80437130D01*
X147373350Y-80552603D01*
X147257651Y-81050580D01*
X89786804Y-81050580D01*
X89946671Y-80702291D01*
X89991125Y-79521190D01*
X89580206Y-78412984D01*
X89453614Y-78223526D01*
X88929659Y-78077412D01*
X87007071Y-80000000D01*
X86992929Y-80000000D01*
X85070341Y-78077412D01*
X84546386Y-78223526D01*
X84053329Y-79297709D01*
X84008875Y-80478810D01*
X64370627Y-80478810D01*
X64372587Y-80474090D01*
X64373411Y-79530052D01*
X64012905Y-78657559D01*
X63426711Y-78070341D01*
X85077412Y-78070341D01*
X87000000Y-79992929D01*
X88922588Y-78070341D01*
X88776474Y-77546386D01*
X88486423Y-77413251D01*
X88722701Y-76844230D01*
X88723299Y-76158778D01*
X88461540Y-75525274D01*
X87977276Y-75040163D01*
X87344230Y-74777299D01*
X86658778Y-74776701D01*
X86025274Y-75038460D01*
X85540163Y-75522724D01*
X85277299Y-76155770D01*
X85276701Y-76841222D01*
X85502108Y-77386747D01*
X85412984Y-77419794D01*
X85223526Y-77546386D01*
X85077412Y-78070341D01*
X63426711Y-78070341D01*
X63345952Y-77989441D01*
X63064041Y-77872381D01*
X63459837Y-77477276D01*
X63722701Y-76844230D01*
X63723299Y-76158778D01*
X63461540Y-75525274D01*
X62977276Y-75040163D01*
X62344230Y-74777299D01*
X61658778Y-74776701D01*
X61025274Y-75038460D01*
X60540163Y-75522724D01*
X60277299Y-76155770D01*
X60276701Y-76841222D01*
X60538460Y-77474726D01*
X60935353Y-77872313D01*
X60657559Y-77987095D01*
X59989441Y-78654048D01*
X59627413Y-79525910D01*
X59626589Y-80469948D01*
X55115000Y-80469948D01*
X55115000Y-73780794D01*
X103226277Y-73780794D01*
X103262897Y-74211232D01*
X104011926Y-74554392D01*
X104835261Y-74584788D01*
X105607554Y-74297795D01*
X105737103Y-74211232D01*
X105773723Y-73780794D01*
X104500000Y-72507071D01*
X103226277Y-73780794D01*
X55115000Y-73780794D01*
X55115000Y-72835261D01*
X102415212Y-72835261D01*
X102702205Y-73607554D01*
X102788768Y-73737103D01*
X103219206Y-73773723D01*
X104492929Y-72500000D01*
X104507071Y-72500000D01*
X105780794Y-73773723D01*
X106158134Y-73741620D01*
X106164523Y-73748021D01*
X106705717Y-73972744D01*
X107291712Y-73973255D01*
X107833298Y-73749477D01*
X108248021Y-73335477D01*
X108249726Y-73331370D01*
X108250523Y-73333298D01*
X108664523Y-73748021D01*
X109205717Y-73972744D01*
X109791712Y-73973255D01*
X110333298Y-73749477D01*
X110748021Y-73335477D01*
X110749726Y-73331370D01*
X110750523Y-73333298D01*
X111164523Y-73748021D01*
X111705717Y-73972744D01*
X112291712Y-73973255D01*
X112833298Y-73749477D01*
X113248021Y-73335477D01*
X113249726Y-73331370D01*
X113250523Y-73333298D01*
X113664523Y-73748021D01*
X114205717Y-73972744D01*
X114791712Y-73973255D01*
X115257504Y-73780794D01*
X125226277Y-73780794D01*
X125262897Y-74211232D01*
X126011926Y-74554392D01*
X126835261Y-74584788D01*
X127607554Y-74297795D01*
X127737103Y-74211232D01*
X127773723Y-73780794D01*
X126500000Y-72507071D01*
X125226277Y-73780794D01*
X115257504Y-73780794D01*
X115333298Y-73749477D01*
X115748021Y-73335477D01*
X115955728Y-72835261D01*
X124415212Y-72835261D01*
X124702205Y-73607554D01*
X124788768Y-73737103D01*
X125219206Y-73773723D01*
X126492929Y-72500000D01*
X126507071Y-72500000D01*
X127780794Y-73773723D01*
X128158134Y-73741620D01*
X128164523Y-73748021D01*
X128705717Y-73972744D01*
X129291712Y-73973255D01*
X129833298Y-73749477D01*
X130248021Y-73335477D01*
X130249726Y-73331370D01*
X130250523Y-73333298D01*
X130664523Y-73748021D01*
X131205717Y-73972744D01*
X131791712Y-73973255D01*
X132333298Y-73749477D01*
X132748021Y-73335477D01*
X132749726Y-73331370D01*
X132750523Y-73333298D01*
X133164523Y-73748021D01*
X133705717Y-73972744D01*
X134291712Y-73973255D01*
X134833298Y-73749477D01*
X135248021Y-73335477D01*
X135249726Y-73331370D01*
X135250523Y-73333298D01*
X135664523Y-73748021D01*
X136205717Y-73972744D01*
X136791712Y-73973255D01*
X137333298Y-73749477D01*
X137748021Y-73335477D01*
X137766193Y-73291712D01*
X146526745Y-73291712D01*
X146750523Y-73833298D01*
X147164523Y-74248021D01*
X147705717Y-74472744D01*
X148291712Y-74473255D01*
X148757504Y-74280794D01*
X151726277Y-74280794D01*
X151762897Y-74711232D01*
X152511926Y-75054392D01*
X153335261Y-75084788D01*
X154107554Y-74797795D01*
X154237103Y-74711232D01*
X154273723Y-74280794D01*
X153000000Y-73007071D01*
X151726277Y-74280794D01*
X148757504Y-74280794D01*
X148833298Y-74249477D01*
X149248021Y-73835477D01*
X149455728Y-73335261D01*
X150915212Y-73335261D01*
X151202205Y-74107554D01*
X151288768Y-74237103D01*
X151719206Y-74273723D01*
X152992929Y-73000000D01*
X153007071Y-73000000D01*
X154280794Y-74273723D01*
X154711232Y-74237103D01*
X155054392Y-73488074D01*
X155084788Y-72664739D01*
X154797795Y-71892446D01*
X154711232Y-71762897D01*
X154280794Y-71726277D01*
X153007071Y-73000000D01*
X152992929Y-73000000D01*
X151719206Y-71726277D01*
X151288768Y-71762897D01*
X150945608Y-72511926D01*
X150915212Y-73335261D01*
X149455728Y-73335261D01*
X149472744Y-73294283D01*
X149473255Y-72708288D01*
X149249477Y-72166702D01*
X148835477Y-71751979D01*
X148756551Y-71719206D01*
X151726277Y-71719206D01*
X153000000Y-72992929D01*
X154273723Y-71719206D01*
X154237103Y-71288768D01*
X153488074Y-70945608D01*
X152664739Y-70915212D01*
X151892446Y-71202205D01*
X151762897Y-71288768D01*
X151726277Y-71719206D01*
X148756551Y-71719206D01*
X148294283Y-71527256D01*
X147708288Y-71526745D01*
X147166702Y-71750523D01*
X146751979Y-72164523D01*
X146527256Y-72705717D01*
X146526745Y-73291712D01*
X137766193Y-73291712D01*
X137972744Y-72794283D01*
X137973255Y-72208288D01*
X137749477Y-71666702D01*
X137335477Y-71251979D01*
X136794283Y-71027256D01*
X136208288Y-71026745D01*
X135666702Y-71250523D01*
X135251979Y-71664523D01*
X135250274Y-71668630D01*
X135249477Y-71666702D01*
X134835477Y-71251979D01*
X134294283Y-71027256D01*
X133708288Y-71026745D01*
X133166702Y-71250523D01*
X132751979Y-71664523D01*
X132750274Y-71668630D01*
X132749477Y-71666702D01*
X132335477Y-71251979D01*
X131794283Y-71027256D01*
X131208288Y-71026745D01*
X130666702Y-71250523D01*
X130251979Y-71664523D01*
X130250274Y-71668630D01*
X130249477Y-71666702D01*
X129835477Y-71251979D01*
X129294283Y-71027256D01*
X128708288Y-71026745D01*
X128166702Y-71250523D01*
X128158777Y-71258434D01*
X127780794Y-71226277D01*
X126507071Y-72500000D01*
X126492929Y-72500000D01*
X125219206Y-71226277D01*
X124788768Y-71262897D01*
X124445608Y-72011926D01*
X124415212Y-72835261D01*
X115955728Y-72835261D01*
X115972744Y-72794283D01*
X115973255Y-72208288D01*
X115749477Y-71666702D01*
X115335477Y-71251979D01*
X115256551Y-71219206D01*
X125226277Y-71219206D01*
X126500000Y-72492929D01*
X127773723Y-71219206D01*
X127737103Y-70788768D01*
X126988074Y-70445608D01*
X126164739Y-70415212D01*
X125392446Y-70702205D01*
X125262897Y-70788768D01*
X125226277Y-71219206D01*
X115256551Y-71219206D01*
X114794283Y-71027256D01*
X114208288Y-71026745D01*
X113666702Y-71250523D01*
X113251979Y-71664523D01*
X113250274Y-71668630D01*
X113249477Y-71666702D01*
X112835477Y-71251979D01*
X112294283Y-71027256D01*
X111708288Y-71026745D01*
X111166702Y-71250523D01*
X110751979Y-71664523D01*
X110750274Y-71668630D01*
X110749477Y-71666702D01*
X110335477Y-71251979D01*
X109794283Y-71027256D01*
X109208288Y-71026745D01*
X108666702Y-71250523D01*
X108251979Y-71664523D01*
X108250274Y-71668630D01*
X108249477Y-71666702D01*
X107835477Y-71251979D01*
X107294283Y-71027256D01*
X106708288Y-71026745D01*
X106166702Y-71250523D01*
X106158777Y-71258434D01*
X105780794Y-71226277D01*
X104507071Y-72500000D01*
X104492929Y-72500000D01*
X103219206Y-71226277D01*
X102788768Y-71262897D01*
X102445608Y-72011926D01*
X102415212Y-72835261D01*
X55115000Y-72835261D01*
X55115000Y-71219206D01*
X103226277Y-71219206D01*
X104500000Y-72492929D01*
X105773723Y-71219206D01*
X105737103Y-70788768D01*
X104988074Y-70445608D01*
X104164739Y-70415212D01*
X103392446Y-70702205D01*
X103262897Y-70788768D01*
X103226277Y-71219206D01*
X55115000Y-71219206D01*
X55115000Y-68115000D01*
X158885000Y-68115000D01*
X158885000Y-128885000D01*
M02*
