G04 #@! TF.FileFunction,Soldermask,Bot*
%FSLAX46Y46*%
G04 Gerber Fmt 4.6, Leading zero omitted, Abs format (unit mm)*
G04 Created by KiCad (PCBNEW 4.0.7-e2-6376~58~ubuntu16.04.1) date Mon Apr  9 08:03:59 2018*
%MOMM*%
%LPD*%
G01*
G04 APERTURE LIST*
%ADD10C,0.100000*%
%ADD11C,3.400000*%
%ADD12C,3.900000*%
%ADD13C,2.100000*%
%ADD14C,2.600000*%
G04 APERTURE END LIST*
D10*
D11*
X110500000Y-112500000D03*
X106300000Y-112500000D03*
X114700000Y-112500000D03*
D12*
X106300000Y-119800000D03*
X114700000Y-119800000D03*
D13*
X114500000Y-72500000D03*
X112000000Y-72500000D03*
X109500000Y-72500000D03*
X107000000Y-72500000D03*
X104500000Y-72500000D03*
D11*
X63500000Y-112500000D03*
X59300000Y-112500000D03*
X67700000Y-112500000D03*
D12*
X59300000Y-119800000D03*
X67700000Y-119800000D03*
D11*
X79500000Y-112500000D03*
X75300000Y-112500000D03*
X83700000Y-112500000D03*
D12*
X75300000Y-119800000D03*
X83700000Y-119800000D03*
D11*
X95000000Y-112500000D03*
X90800000Y-112500000D03*
X99200000Y-112500000D03*
D12*
X90800000Y-119800000D03*
X99200000Y-119800000D03*
D11*
X126500000Y-112500000D03*
X122300000Y-112500000D03*
X130700000Y-112500000D03*
D12*
X122300000Y-119800000D03*
X130700000Y-119800000D03*
D11*
X142500000Y-112500000D03*
X138300000Y-112500000D03*
X146700000Y-112500000D03*
D12*
X138300000Y-119800000D03*
X146700000Y-119800000D03*
D11*
X149000000Y-103000000D03*
X149000000Y-107200000D03*
X149000000Y-98800000D03*
D12*
X156300000Y-107200000D03*
X156300000Y-98800000D03*
D11*
X149000000Y-87000000D03*
X149000000Y-91200000D03*
X149000000Y-82800000D03*
D12*
X156300000Y-91200000D03*
X156300000Y-82800000D03*
D13*
X136500000Y-72500000D03*
X134000000Y-72500000D03*
X131500000Y-72500000D03*
X129000000Y-72500000D03*
X126500000Y-72500000D03*
X58500000Y-95500000D03*
X58500000Y-90500000D03*
D14*
X87000000Y-76500000D03*
X62000000Y-76500000D03*
D12*
X62000000Y-80000000D03*
X87000000Y-80000000D03*
D11*
X52500000Y-67500000D03*
X52500000Y-128500000D03*
X161500000Y-128500000D03*
X161500000Y-67500000D03*
D13*
X148000000Y-73000000D03*
X153000000Y-73000000D03*
M02*
