M48
;DRILL file {KiCad 4.0.7-e2-6376~58~ubuntu16.04.1} date Mon Apr  9 08:04:02 2018
;FORMAT={3:3/ absolute / metric / suppress leading zeros}
FMAT,2
METRIC,TZ
T1C1.200
T2C2.000
T3C2.500
%
G90
G05
M71
T1
X58500Y-90500
X58500Y-95500
X104500Y-72500
X107000Y-72500
X109500Y-72500
X112000Y-72500
X114500Y-72500
X126500Y-72500
X129000Y-72500
X131500Y-72500
X134000Y-72500
X136500Y-72500
X148000Y-73000
X153000Y-73000
T2
X59300Y-112500
X63500Y-112500
X67700Y-112500
X75300Y-112500
X79500Y-112500
X83700Y-112500
X90800Y-112500
X95000Y-112500
X99200Y-112500
X106300Y-112500
X110500Y-112500
X114700Y-112500
X122300Y-112500
X126500Y-112500
X130700Y-112500
X138300Y-112500
X142500Y-112500
X146700Y-112500
X149000Y-82800
X149000Y-87000
X149000Y-91200
X149000Y-98800
X149000Y-103000
X149000Y-107200
T3
X62000Y-80000
X87000Y-80000
T0
M30
