M48
;DRILL file {KiCad 4.0.7-e2-6376~58~ubuntu16.04.1} date Wed Apr  4 08:28:09 2018
;FORMAT={-:-/ absolute / inch / decimal}
FMAT,2
INCH,TZ
T1C0.047
T2C0.079
T3C0.098
%
G90
G05
M72
T1
X2.3031Y-3.563
X2.3031Y-3.7598
X4.1142Y-2.8543
X4.2126Y-2.8543
X4.311Y-2.8543
X4.4094Y-2.8543
X4.5079Y-2.8543
X4.9803Y-2.8543
X5.0787Y-2.8543
X5.1772Y-2.8543
X5.2756Y-2.8543
X5.374Y-2.8543
X5.8268Y-2.874
X6.0236Y-2.874
T2
X2.3346Y-4.4291
X2.5Y-4.4291
X2.6654Y-4.4291
X2.9646Y-4.4291
X3.1299Y-4.4291
X3.2953Y-4.4291
X3.5748Y-4.4291
X3.7402Y-4.4291
X3.9055Y-4.4291
X4.185Y-4.4291
X4.3504Y-4.4291
X4.5157Y-4.4291
X4.815Y-4.4291
X4.9803Y-4.4291
X5.1457Y-4.4291
X5.4449Y-4.4291
X5.6102Y-4.4291
X5.7756Y-4.4291
X5.8661Y-3.2598
X5.8661Y-3.4252
X5.8661Y-3.5906
X5.8661Y-3.8898
X5.8661Y-4.0551
X5.8661Y-4.2205
T3
X2.4409Y-3.1496
X3.4252Y-3.1496
T0
M30
