M48
;DRILL file {KiCad 4.0.7-e2-6376~58~ubuntu16.04.1} date Wed Apr  4 08:28:09 2018
;FORMAT={-:-/ absolute / inch / decimal}
FMAT,2
INCH,TZ
T1C0.087
T2C0.108
T3C0.138
%
G90
G05
M72
T1
X2.4409Y-3.0118
X3.4252Y-3.0118
T2
X2.0669Y-2.6575
X2.0669Y-5.0591
X6.3583Y-2.6575
X6.3583Y-5.0591
T3
X2.3346Y-4.7165
X2.6654Y-4.7165
X2.9646Y-4.7165
X3.2953Y-4.7165
X3.5748Y-4.7165
X3.9055Y-4.7165
X4.185Y-4.7165
X4.5157Y-4.7165
X4.815Y-4.7165
X5.1457Y-4.7165
X5.4449Y-4.7165
X5.7756Y-4.7165
X6.1535Y-3.2598
X6.1535Y-3.5906
X6.1535Y-3.8898
X6.1535Y-4.2205
T0
M30
